<svg xmlns="http://www.w3.org/2000/svg" xmlns:xlink="http://www.w3.org/1999/xlink" width="60.553" height="46.369" viewBox="0 0 60.553 46.369">
  <defs>
    <filter id="Rectangle_417" x="0" y="0" width="60.553" height="46.369" filterUnits="userSpaceOnUse">
      <feOffset dy="3" input="SourceAlpha"/>
      <feGaussianBlur stdDeviation="3" result="blur"/>
      <feFlood flood-opacity="0.161"/>
      <feComposite operator="in" in2="blur"/>
      <feComposite in="SourceGraphic"/>
    </filter>
  </defs>
  <g id="Flag_of_Hong_Kong" transform="translate(9 6)">
    <g transform="matrix(1, 0, 0, 1, -9, -6)" filter="url(#Rectangle_417)">
      <rect id="Rectangle_417-2" data-name="Rectangle 417" width="42.553" height="28.369" transform="translate(9 6)" fill="#de2910"/>
    </g>
    <g id="petal" transform="translate(18.454 5.909)">
      <path id="Path_1031" data-name="Path 1031" d="M393.124,133.243c-4.977-2.1-2.771-8.585,1.989-8.26a1.465,1.465,0,0,0-.553,2.274,2.228,2.228,0,0,1-.889,2.873A1.811,1.811,0,0,0,393.124,133.243Z" transform="translate(-390.303 -124.972)" fill="#fff"/>
      <path id="Path_1032" data-name="Path 1032" d="M426.416,181.228l-.28.439-.1-.511-.5-.13.455-.255-.032-.52.382.354.485-.191-.218.473.331.4Z" transform="translate(-423.864 -177.637)" fill="#de2910"/>
      <path id="Path_1033" data-name="Path 1033" d="M419.567,210.287a2.738,2.738,0,0,1-1.3-1.723,3.274,3.274,0,0,1,.382-2.6l-.1-.066a3.4,3.4,0,0,0-.4,2.7,2.823,2.823,0,0,0,1.361,1.8Z" transform="translate(-416.718 -202.07)" fill="#de2910"/>
    </g>
    <g id="Group_384" data-name="Group 384" transform="translate(28.275 8.943) rotate(72)">
      <path id="Path_1034" data-name="Path 1034" d="M2.821,8.271C-2.156,6.168.05-.314,4.81.012a1.465,1.465,0,0,0-.553,2.274,2.228,2.228,0,0,1-.889,2.873,1.811,1.811,0,0,0-.547,3.113Z" transform="translate(0 0)" fill="#fff"/>
      <path id="Path_1035" data-name="Path 1035" d="M.886.977l-.28.439L.5.905,0,.775.455.52.423,0,.806.354,1.291.163,1.073.636l.331.4Z" transform="translate(1.666 2.614)" fill="#de2910"/>
      <path id="Path_1036" data-name="Path 1036" d="M1.538,4.391a2.739,2.739,0,0,1-1.3-1.723A3.274,3.274,0,0,1,.622.066L.517,0a3.4,3.4,0,0,0-.4,2.7A2.823,2.823,0,0,0,1.482,4.5Z" transform="translate(1.311 3.826)" fill="#de2910"/>
    </g>
    <g id="Group_385" data-name="Group 385" transform="matrix(-0.809, 0.588, -0.588, -0.809, 28.424, 19.22)">
      <path id="Path_1037" data-name="Path 1037" d="M2.821,8.272C-2.156,6.168.05-.314,4.81.012a1.465,1.465,0,0,0-.553,2.274,2.228,2.228,0,0,1-.889,2.873,1.811,1.811,0,0,0-.547,3.113Z" transform="translate(0 0)" fill="#fff"/>
      <path id="Path_1038" data-name="Path 1038" d="M.886.977l-.28.439L.5.905,0,.775.455.52.423,0,.806.354,1.291.163,1.073.636l.331.4Z" transform="translate(1.666 2.614)" fill="#de2910"/>
      <path id="Path_1039" data-name="Path 1039" d="M1.538,4.391a2.739,2.739,0,0,1-1.3-1.723A3.274,3.274,0,0,1,.622.066L.517,0a3.4,3.4,0,0,0-.4,2.7A2.823,2.823,0,0,0,1.482,4.5Z" transform="translate(1.311 3.826)" fill="#de2910"/>
    </g>
    <g id="Group_386" data-name="Group 386" transform="matrix(-0.809, -0.588, 0.588, -0.809, 18.696, 22.538)">
      <path id="Path_1040" data-name="Path 1040" d="M2.821,8.272C-2.156,6.168.05-.314,4.81.012a1.465,1.465,0,0,0-.553,2.274,2.228,2.228,0,0,1-.889,2.873,1.811,1.811,0,0,0-.547,3.113Z" transform="translate(0 0)" fill="#fff"/>
      <path id="Path_1041" data-name="Path 1041" d="M.886.977l-.28.439L.5.905,0,.775.455.52.423,0,.806.354,1.291.163,1.073.636l.331.4Z" transform="translate(1.666 2.614)" fill="#de2910"/>
      <path id="Path_1042" data-name="Path 1042" d="M1.538,4.391a2.739,2.739,0,0,1-1.3-1.723A3.274,3.274,0,0,1,.622.066L.517,0a3.4,3.4,0,0,0-.4,2.7A2.823,2.823,0,0,0,1.482,4.5Z" transform="translate(1.311 3.826)" fill="#de2910"/>
    </g>
    <g id="Group_387" data-name="Group 387" transform="translate(12.534 14.311) rotate(-72)">
      <path id="Path_1043" data-name="Path 1043" d="M2.821,8.271C-2.156,6.168.05-.314,4.81.012a1.465,1.465,0,0,0-.553,2.274,2.228,2.228,0,0,1-.889,2.873,1.811,1.811,0,0,0-.547,3.113Z" transform="translate(0 0)" fill="#fff"/>
      <path id="Path_1044" data-name="Path 1044" d="M.886.977l-.28.439L.5.905,0,.775.455.52.423,0,.806.354,1.291.163,1.073.636l.331.4Z" transform="translate(1.666 2.614)" fill="#de2910"/>
      <path id="Path_1045" data-name="Path 1045" d="M1.538,4.391a2.739,2.739,0,0,1-1.3-1.723A3.274,3.274,0,0,1,.622.066L.517,0a3.4,3.4,0,0,0-.4,2.7A2.823,2.823,0,0,0,1.482,4.5Z" transform="translate(1.311 3.826)" fill="#de2910"/>
    </g>
  </g>
</svg>
