<svg xmlns="http://www.w3.org/2000/svg" width="37.184" height="25.867" viewBox="0 0 37.184 25.867">
  <path id="Path_1029" data-name="Path 1029" d="M1655.163,1244.541h-6.644c-.013-.017-.025-.035-.038-.052l-5.254-6.467a1.415,1.415,0,1,0-2.2,1.784l3.847,4.734H1631.5l3.847-4.734a1.415,1.415,0,1,0-2.2-1.784l-5.254,6.467c-.013.017-.025.035-.038.052h-5.836a2.021,2.021,0,0,0,0,4.042h.808l1.111,10.8a3.984,3.984,0,0,0,3.984,3.984h21.537a3.984,3.984,0,0,0,3.984-3.984l1.057-10.8h.66a2.021,2.021,0,1,0,0-4.042Zm-23.139,13.774a1.01,1.01,0,1,1-2.021,0v-7.477a1.01,1.01,0,1,1,2.021,0Zm7.679.1a1.01,1.01,0,1,1-2.021,0v-7.477a1.01,1.01,0,0,1,2.021,0Zm7.679.1a1.01,1.01,0,0,1-2.021,0v-7.477a1.01,1.01,0,1,1,2.021,0Z" transform="translate(-1620 -1237.499)" fill="#fff"/>
</svg>
